<svg xmlns="http://www.w3.org/2000/svg" viewBox="0 0 64 64" role="img" aria-label="Designlode">
  <defs>
    <linearGradient id="veinGold" x1="0%" y1="0%" x2="100%" y2="100%">
      <stop offset="0%" stop-color="#f7e6b5" />
      <stop offset="40%" stop-color="#e6c46b" />
      <stop offset="100%" stop-color="#c08f2f" />
    </linearGradient>
    <filter id="veinGlow" x="-10%" y="-10%" width="120%" height="120%">
      <feGaussianBlur in="SourceGraphic" stdDeviation="1.2" result="blur" />
      <feMerge>
        <feMergeNode in="blur" />
        <feMergeNode in="SourceGraphic" />
      </feMerge>
    </filter>
  </defs>
  <path
    d="M8 50 C16 44 14 32 24 30 C34 28 40 20 48 16 C56 12 56 26 46 32
       C36 38 36 52 22 54 C14 55 12 50 12 44
       M20 42 C26 38 28 30 34 26"
    fill="none"
    stroke="url(#veinGold)"
    stroke-width="6"
    stroke-linecap="round"
    stroke-linejoin="round"
    filter="url(#veinGlow)"
  />
  <path
    d="M10 48 C18 42 20 34 30 32 C38 30 46 22 54 18"
    fill="none"
    stroke="#fff7d6"
    stroke-width="2"
    stroke-linecap="round"
    stroke-linejoin="round"
    opacity="0.8"
  />
</svg>


